<svg width="1030" height="638" viewBox="0 0 1030 638" fill="none" xmlns="http://www.w3.org/2000/svg">
<path d="M892.667 60.5696H504.902C482.594 60.5696 464.51 78.6482 464.51 100.949V565.316C464.51 587.618 482.594 605.696 504.902 605.696H892.667C914.975 605.696 933.059 587.618 933.059 565.316V100.949C933.059 78.6482 914.975 60.5696 892.667 60.5696Z" fill="#F9F9F9"/>
<path d="M912.863 40.3797H525.098C502.79 40.3797 484.706 58.4583 484.706 80.7594V541.089C484.706 563.39 502.79 581.468 525.098 581.468H912.863C935.171 581.468 953.255 563.39 953.255 541.089V80.7594C953.255 58.4583 935.171 40.3797 912.863 40.3797Z" fill="white"/>
<path d="M525.098 48.4557C516.528 48.4557 508.309 51.8591 502.249 57.9172C496.189 63.9754 492.784 72.192 492.784 80.7595V541.089C492.784 549.656 496.189 557.873 502.249 563.931C508.309 569.989 516.528 573.392 525.098 573.392H912.863C921.433 573.392 929.652 569.989 935.712 563.931C941.772 557.873 945.176 549.656 945.176 541.089V80.7595C945.176 72.192 941.772 63.9754 935.712 57.9172C929.652 51.8591 921.433 48.4557 912.863 48.4557H525.098ZM525.098 32.3038H912.863C939.631 32.3038 961.333 53.9998 961.333 80.7595V541.089C961.333 567.848 939.631 589.544 912.863 589.544H525.098C498.33 589.544 476.627 567.848 476.627 541.089V80.7595C476.627 53.9998 498.33 32.3038 525.098 32.3038Z" fill="#EEEEEE"/>
<path d="M565.49 133.253H613.961C616.103 133.253 618.158 134.104 619.673 135.618C621.188 137.133 622.039 139.187 622.039 141.329C622.039 143.471 621.188 145.525 619.673 147.04C618.158 148.554 616.103 149.405 613.961 149.405H565.49C563.348 149.405 561.293 148.554 559.778 147.04C558.263 145.525 557.412 143.471 557.412 141.329C557.412 139.187 558.263 137.133 559.778 135.618C561.293 134.104 563.348 133.253 565.49 133.253ZM694.745 181.709H743.216C745.358 181.709 747.413 182.56 748.928 184.074C750.443 185.589 751.294 187.643 751.294 189.785C751.294 191.927 750.443 193.981 748.928 195.495C747.413 197.01 745.358 197.861 743.216 197.861H694.745C692.603 197.861 690.548 197.01 689.033 195.495C687.518 193.981 686.667 191.927 686.667 189.785C686.667 187.643 687.518 185.589 689.033 184.074C690.548 182.56 692.603 181.709 694.745 181.709Z" fill="#E1DBF1"/>
<path d="M743.216 133.253H791.686C793.829 133.253 795.884 134.104 797.399 135.618C798.914 137.133 799.765 139.187 799.765 141.329C799.765 143.471 798.914 145.525 797.399 147.04C795.884 148.554 793.829 149.405 791.686 149.405H743.216C741.073 149.405 739.018 148.554 737.503 147.04C735.988 145.525 735.137 143.471 735.137 141.329C735.137 139.187 735.988 137.133 737.503 135.618C739.018 134.104 741.073 133.253 743.216 133.253Z" fill="#EEEEEE"/>
<path d="M613.961 230.165H662.431C664.574 230.165 666.629 231.015 668.144 232.53C669.659 234.044 670.51 236.099 670.51 238.241C670.51 240.382 669.659 242.437 668.144 243.951C666.629 245.466 664.574 246.316 662.431 246.316H613.961C611.818 246.316 609.763 245.466 608.248 243.951C606.733 242.437 605.882 240.382 605.882 238.241C605.882 236.099 606.733 234.044 608.248 232.53C609.763 231.015 611.818 230.165 613.961 230.165Z" fill="#E1DBF1"/>
<path d="M646.274 133.253H662.431C664.574 133.253 666.629 134.104 668.144 135.618C669.659 137.133 670.51 139.187 670.51 141.329C670.51 143.471 669.659 145.525 668.144 147.04C666.629 148.554 664.574 149.405 662.431 149.405H646.274C644.132 149.405 642.077 148.554 640.562 147.04C639.047 145.525 638.196 143.471 638.196 141.329C638.196 139.187 639.047 137.133 640.562 135.618C642.077 134.104 644.132 133.253 646.274 133.253Z" fill="#FEE1D3"/>
<path d="M694.745 278.62H710.902C713.045 278.62 715.099 279.471 716.614 280.986C718.129 282.5 718.98 284.554 718.98 286.696C718.98 288.838 718.129 290.892 716.614 292.407C715.099 293.921 713.045 294.772 710.902 294.772H694.745C692.603 294.772 690.548 293.921 689.033 292.407C687.518 290.892 686.667 288.838 686.667 286.696C686.667 284.554 687.518 282.5 689.033 280.986C690.548 279.471 692.603 278.62 694.745 278.62Z" fill="#FACA01"/>
<path d="M775.529 181.709H791.686C793.829 181.709 795.884 182.56 797.399 184.074C798.914 185.589 799.765 187.643 799.765 189.785C799.765 191.927 798.914 193.981 797.399 195.495C795.884 197.01 793.829 197.861 791.686 197.861H775.529C773.387 197.861 771.332 197.01 769.817 195.495C768.302 193.981 767.451 191.927 767.451 189.785C767.451 187.643 768.302 185.589 769.817 184.074C771.332 182.56 773.387 181.709 775.529 181.709ZM824 133.253H840.157C842.299 133.253 844.354 134.104 845.869 135.618C847.384 137.133 848.235 139.187 848.235 141.329C848.235 143.471 847.384 145.525 845.869 147.04C844.354 148.554 842.299 149.405 840.157 149.405H824C821.857 149.405 819.803 148.554 818.288 147.04C816.773 145.525 815.922 143.471 815.922 141.329C815.922 139.187 816.773 137.133 818.288 135.618C819.803 134.104 821.857 133.253 824 133.253Z" fill="#FEF0E8"/>
<path d="M630.118 327.076H662.431C664.574 327.076 666.629 327.927 668.144 329.441C669.659 330.956 670.51 333.01 670.51 335.152C670.51 337.294 669.659 339.348 668.144 340.862C666.629 342.377 664.574 343.228 662.431 343.228H630.118C627.975 343.228 625.92 342.377 624.405 340.862C622.89 339.348 622.039 337.294 622.039 335.152C622.039 333.01 622.89 330.956 624.405 329.441C625.92 327.927 627.975 327.076 630.118 327.076Z" fill="#E1DBF1"/>
<path d="M743.216 278.62H759.373C761.515 278.62 763.57 279.471 765.085 280.986C766.6 282.5 767.451 284.554 767.451 286.696C767.451 288.838 766.6 290.892 765.085 292.407C763.57 293.921 761.515 294.772 759.373 294.772H743.216C741.073 294.772 739.018 293.921 737.503 292.407C735.988 290.892 735.137 288.838 735.137 286.696C735.137 284.554 735.988 282.5 737.503 280.986C739.018 279.471 741.073 278.62 743.216 278.62Z" fill="#FACA01"/>
<path d="M826.02 262.468C828.698 262.468 831.266 263.532 833.16 265.425C835.054 267.318 836.118 269.886 836.118 272.563C836.118 275.241 835.054 277.808 833.16 279.701C831.266 281.595 828.698 282.658 826.02 282.658C823.341 282.658 820.773 281.595 818.879 279.701C816.985 277.808 815.922 275.241 815.922 272.563C815.922 269.886 816.985 267.318 818.879 265.425C820.773 263.532 823.341 262.468 826.02 262.468ZM866.412 379.57C869.09 379.57 871.658 380.633 873.552 382.526C875.446 384.419 876.51 386.987 876.51 389.664C876.51 392.342 875.446 394.91 873.552 396.803C871.658 398.696 869.09 399.759 866.412 399.759C863.734 399.759 861.165 398.696 859.271 396.803C857.378 394.91 856.314 392.342 856.314 389.664C856.314 386.987 857.378 384.419 859.271 382.526C861.165 380.633 863.734 379.57 866.412 379.57Z" fill="#E1DBF1"/>
<path d="M902.765 379.57C905.443 379.57 908.011 380.633 909.905 382.526C911.799 384.419 912.863 386.987 912.863 389.664C912.863 392.342 911.799 394.91 909.905 396.803C908.011 398.696 905.443 399.759 902.765 399.759C900.087 399.759 897.518 398.696 895.624 396.803C893.731 394.91 892.667 392.342 892.667 389.664C892.667 386.987 893.731 384.419 895.624 382.526C897.518 380.633 900.087 379.57 902.765 379.57ZM694.745 133.253H710.902C713.045 133.253 715.099 134.104 716.614 135.618C718.129 137.133 718.98 139.187 718.98 141.329C718.98 143.471 718.129 145.525 716.614 147.04C715.099 148.554 713.045 149.405 710.902 149.405H694.745C692.603 149.405 690.548 148.554 689.033 147.04C687.518 145.525 686.667 143.471 686.667 141.329C686.667 139.187 687.518 137.133 689.033 135.618C690.548 134.104 692.603 133.253 694.745 133.253Z" fill="#FACA01"/>
<path d="M565.49 278.62H662.431C664.574 278.62 666.629 279.471 668.144 280.986C669.659 282.5 670.51 284.554 670.51 286.696C670.51 288.838 669.659 290.892 668.144 292.407C666.629 293.921 664.574 294.772 662.431 294.772H565.49C563.348 294.772 561.293 293.921 559.778 292.407C558.263 290.892 557.412 288.838 557.412 286.696C557.412 284.554 558.263 282.5 559.778 280.986C561.293 279.471 563.348 278.62 565.49 278.62ZM769.184 319H886.895C892.315 319 896.706 323.523 896.706 329.095C896.706 334.667 892.315 339.19 886.895 339.19H769.188C763.767 339.19 759.377 334.667 759.377 329.095C759.377 323.523 763.763 319 769.184 319Z" fill="#EEEEEE"/>
<path d="M708.596 379.57H826.306C831.727 379.57 836.118 384.092 836.118 389.665C836.118 395.237 831.727 399.759 826.306 399.759H708.6C703.179 399.759 698.788 395.237 698.788 389.665C698.788 384.092 703.175 379.57 708.596 379.57Z" fill="#EFEDF8"/>
<path d="M565.49 181.709H662.431C664.574 181.709 666.629 182.56 668.144 184.074C669.659 185.589 670.51 187.643 670.51 189.785C670.51 191.927 669.659 193.981 668.144 195.495C666.629 197.01 664.574 197.861 662.431 197.861H565.49C563.348 197.861 561.293 197.01 559.778 195.495C558.263 193.981 557.412 191.927 557.412 189.785C557.412 187.643 558.263 185.589 559.778 184.074C561.293 182.56 563.348 181.709 565.49 181.709Z" fill="#0174FD"/>
<path d="M694.745 230.165H791.686C793.829 230.165 795.884 231.015 797.399 232.53C798.914 234.044 799.765 236.099 799.765 238.241C799.765 240.382 798.914 242.437 797.399 243.951C795.884 245.466 793.829 246.316 791.686 246.316H694.745C692.603 246.316 690.548 245.466 689.033 243.951C687.518 242.437 686.667 240.382 686.667 238.241C686.667 236.099 687.518 234.044 689.033 232.53C690.548 231.015 692.603 230.165 694.745 230.165Z" fill="#7CB8FF"/>
<path d="M565.49 230.165H581.647C583.79 230.165 585.844 231.015 587.359 232.53C588.874 234.044 589.725 236.099 589.725 238.241C589.725 240.382 588.874 242.437 587.359 243.951C585.844 245.466 583.79 246.316 581.647 246.316H565.49C563.348 246.316 561.293 245.466 559.778 243.951C558.263 242.437 557.412 240.382 557.412 238.241C557.412 236.099 558.263 234.044 559.778 232.53C561.293 231.015 563.348 230.165 565.49 230.165Z" fill="#FEF0E8"/>
<path d="M694.745 327.076H710.902C713.045 327.076 715.099 327.927 716.614 329.441C718.129 330.956 718.98 333.01 718.98 335.152C718.98 337.294 718.129 339.348 716.614 340.862C715.099 342.377 713.045 343.228 710.902 343.228H694.745C692.603 343.228 690.548 342.377 689.033 340.862C687.518 339.348 686.667 337.294 686.667 335.152C686.667 333.01 687.518 330.956 689.033 329.441C690.548 327.927 692.603 327.076 694.745 327.076Z" fill="#0174FD"/>
<path d="M565.49 327.076H597.804C599.946 327.076 602.001 327.927 603.516 329.441C605.031 330.956 605.882 333.01 605.882 335.152C605.882 337.294 605.031 339.348 603.516 340.862C602.001 342.377 599.946 343.228 597.804 343.228H565.49C563.348 343.228 561.293 342.377 559.778 340.862C558.263 339.348 557.412 337.294 557.412 335.152C557.412 333.01 558.263 330.956 559.778 329.441C561.293 327.927 563.348 327.076 565.49 327.076Z" fill="#FACA01"/>
<path d="M565.49 375.532H597.804C599.946 375.532 602.001 376.382 603.516 377.897C605.031 379.412 605.882 381.466 605.882 383.608C605.882 385.749 605.031 387.804 603.516 389.318C602.001 390.833 599.946 391.684 597.804 391.684H565.49C563.348 391.684 561.293 390.833 559.778 389.318C558.263 387.804 557.412 385.749 557.412 383.608C557.412 381.466 558.263 379.412 559.778 377.897C561.293 376.382 563.348 375.532 565.49 375.532ZM630.118 375.532H662.431C664.574 375.532 666.629 376.382 668.144 377.897C669.659 379.412 670.51 381.466 670.51 383.608C670.51 385.749 669.659 387.804 668.144 389.318C666.629 390.833 664.574 391.684 662.431 391.684H630.118C627.975 391.684 625.92 390.833 624.405 389.318C622.89 387.804 622.039 385.749 622.039 383.608C622.039 381.466 622.89 379.412 624.405 377.897C625.92 376.382 627.975 375.532 630.118 375.532Z" fill="#FEF0E8"/>
<path d="M565.49 423.987H613.961C616.103 423.987 618.158 424.838 619.673 426.353C621.188 427.867 622.039 429.921 622.039 432.063C622.039 434.205 621.188 436.259 619.673 437.774C618.158 439.288 616.103 440.139 613.961 440.139H565.49C563.348 440.139 561.293 439.288 559.778 437.774C558.263 436.259 557.412 434.205 557.412 432.063C557.412 429.921 558.263 427.867 559.778 426.353C561.293 424.838 563.348 423.987 565.49 423.987Z" fill="#EFEDF8"/>
<path d="M639.711 472.443H697.27C702.569 472.443 706.863 476.057 706.863 480.519C706.863 484.981 702.569 488.595 697.27 488.595H639.711C634.411 488.595 630.118 484.981 630.118 480.519C630.118 476.057 634.411 472.443 639.711 472.443Z" fill="#FACA01"/>
<path d="M768.966 436.101H826.525C831.824 436.101 836.118 440.624 836.118 446.196C836.118 451.769 831.824 456.291 826.525 456.291H768.966C763.666 456.291 759.373 451.769 759.373 446.196C759.373 440.624 763.666 436.101 768.966 436.101Z" fill="#0174FD"/>
<path d="M646.274 423.987H662.431C664.574 423.987 666.629 424.838 668.144 426.353C669.659 427.867 670.51 429.921 670.51 432.063C670.51 434.205 669.659 436.259 668.144 437.774C666.629 439.288 664.574 440.139 662.431 440.139H646.274C644.132 440.139 642.077 439.288 640.562 437.774C639.047 436.259 638.196 434.205 638.196 432.063C638.196 429.921 639.047 427.867 640.562 426.353C642.077 424.838 644.132 423.987 646.274 423.987Z" fill="#FEE1D3"/>
<path d="M718.98 472.443H735.137C737.28 472.443 739.335 473.294 740.85 474.808C742.365 476.323 743.216 478.377 743.216 480.519C743.216 482.661 742.365 484.715 740.85 486.229C739.335 487.744 737.28 488.595 735.137 488.595H718.98C716.838 488.595 714.783 487.744 713.268 486.229C711.753 484.715 710.902 482.661 710.902 480.519C710.902 478.377 711.753 476.323 713.268 474.808C714.783 473.294 716.838 472.443 718.98 472.443ZM866.412 436.101H886.608C889.286 436.101 891.854 437.165 893.748 439.058C895.642 440.951 896.706 443.519 896.706 446.196C896.706 448.873 895.642 451.441 893.748 453.334C891.854 455.228 889.286 456.291 886.608 456.291H866.412C863.734 456.291 861.165 455.228 859.271 453.334C857.378 451.441 856.314 448.873 856.314 446.196C856.314 443.519 857.378 440.951 859.271 439.058C861.165 437.165 863.734 436.101 866.412 436.101Z" fill="#FEF0E8"/>
<path d="M708.882 436.101H729.078C731.757 436.101 734.325 437.165 736.219 439.058C738.113 440.951 739.176 443.519 739.176 446.196C739.176 448.873 738.113 451.441 736.219 453.334C734.325 455.228 731.757 456.291 729.078 456.291H708.882C706.204 456.291 703.636 455.228 701.742 453.334C699.848 451.441 698.784 448.873 698.784 446.196C698.784 443.519 699.848 440.951 701.742 439.058C703.636 437.165 706.204 436.101 708.882 436.101Z" fill="#FACA01"/>
<path d="M565.49 472.443H605.882C608.025 472.443 610.08 473.294 611.595 474.808C613.11 476.323 613.961 478.377 613.961 480.519C613.961 482.661 613.11 484.715 611.595 486.23C610.08 487.744 608.025 488.595 605.882 488.595H565.49C563.348 488.595 561.293 487.744 559.778 486.23C558.263 484.715 557.412 482.661 557.412 480.519C557.412 478.377 558.263 476.323 559.778 474.808C561.293 473.294 563.348 472.443 565.49 472.443Z" fill="#EEEEEE"/>
<path d="M173.686 456.291C251.764 456.291 315.059 393.016 315.059 314.962C315.059 236.908 251.764 173.633 173.686 173.633C95.6084 173.633 32.3137 236.908 32.3137 314.962C32.3137 393.016 95.6084 456.291 173.686 456.291Z" fill="white"/>
<path d="M173.686 456.291C95.6082 456.291 32.3137 393.016 32.3137 314.962C32.3137 236.908 95.6082 173.633 173.686 173.633C251.764 173.633 315.059 236.908 315.059 314.962C315.059 393.016 251.764 456.291 173.686 456.291ZM173.686 440.139C242.838 440.139 298.902 384.092 298.902 314.962C298.902 245.832 242.838 189.785 173.686 189.785C104.535 189.785 48.4706 245.832 48.4706 314.962C48.4706 384.092 104.535 440.139 173.686 440.139Z" fill="#EEEEEE"/>
<path d="M343.333 319C343.333 314.538 346.916 310.924 351.404 310.924H367.577C372.032 310.924 375.647 314.51 375.647 319C375.647 323.462 372.064 327.076 367.577 327.076H351.404C350.343 327.078 349.292 326.871 348.311 326.465C347.33 326.06 346.439 325.465 345.689 324.715C344.94 323.964 344.345 323.073 343.941 322.092C343.537 321.112 343.33 320.061 343.333 319ZM399.882 319C399.882 314.538 403.465 310.924 407.953 310.924H424.126C428.581 310.924 432.196 314.51 432.196 319C432.196 323.462 428.613 327.076 424.126 327.076H407.953C406.892 327.078 405.841 326.871 404.86 326.465C403.879 326.06 402.988 325.465 402.238 324.715C401.489 323.964 400.894 323.073 400.49 322.092C400.086 321.112 399.879 320.061 399.882 319Z" fill="#E5E5E5"/>
<path d="M888.098 506.374C834.538 543.782 760.261 538.585 712.457 490.796C658.82 437.175 658.82 350.25 712.457 296.634C766.09 243.017 853.042 243.017 906.675 296.634C954.483 344.427 959.661 418.702 922.258 472.225C922.795 472.673 923.316 473.15 923.821 473.654L986.655 536.465C990.04 539.856 992.344 544.173 993.277 548.872C994.209 553.571 993.728 558.441 991.895 562.867C990.061 567.293 986.957 571.076 982.974 573.74C978.992 576.404 974.309 577.829 969.517 577.834C966.333 577.834 963.181 577.207 960.24 575.988C957.3 574.769 954.628 572.983 952.378 570.731L889.548 507.917C889.048 507.417 888.57 506.895 888.114 506.354M883.833 467.945C924.847 426.943 924.847 360.466 883.833 319.468C842.823 278.467 776.325 278.467 735.311 319.468C694.301 360.466 694.301 426.943 735.311 467.945C776.325 508.942 842.823 508.942 883.833 467.945Z" fill="#0174FD"/>
<path d="M173.686 391.684C131.303 391.684 96.9412 357.332 96.9412 314.962C96.9412 272.592 131.303 238.24 173.686 238.24C216.07 238.24 250.431 272.592 250.431 314.962C250.431 357.332 216.07 391.684 173.686 391.684ZM173.686 379.57C209.381 379.57 238.314 350.646 238.314 314.962C238.314 279.278 209.381 250.354 173.686 250.354C137.992 250.354 109.059 279.278 109.059 314.962C109.059 350.646 137.992 379.57 173.686 379.57Z" fill="#D2CAEA"/>
<path d="M161.569 282.658C161.65 279.5 162.963 276.498 165.226 274.292C167.49 272.087 170.526 270.853 173.686 270.853C176.847 270.853 179.883 272.087 182.146 274.292C184.41 276.498 185.722 279.5 185.804 282.658V314.934C185.722 318.092 184.41 321.094 182.146 323.299C179.883 325.505 176.847 326.739 173.686 326.739C170.526 326.739 167.49 325.505 165.226 323.299C162.963 321.094 161.65 318.092 161.569 314.934V282.658ZM173.686 359.368C170.472 359.368 167.39 358.091 165.118 355.819C162.845 353.548 161.569 350.466 161.569 347.254C161.569 344.041 162.845 340.96 165.118 338.688C167.39 336.416 170.472 335.14 173.686 335.14C176.9 335.14 179.982 336.416 182.255 338.688C184.527 340.96 185.804 344.041 185.804 347.254C185.804 350.466 184.527 353.548 182.255 355.819C179.982 358.091 176.9 359.368 173.686 359.368Z" fill="#0174FD"/>
</svg>
