<svg width="640" height="640" viewBox="0 0 640 640" fill="none" xmlns="http://www.w3.org/2000/svg">
<path d="M114 201.829C114 188.624 121.646 176.613 133.611 171.024L333.611 77.6029C356.153 67.0732 382 83.5276 382 108.408L382 527.856C382 552.919 355.806 569.368 333.231 558.481L133.231 462.029C121.473 456.359 114 444.458 114 431.404L114 201.829Z" fill="url(#paint0_linear_1_2)"/>
<path d="M249 263.853C249 248.121 259.792 234.444 275.092 230.785L504.092 176.022C525.465 170.911 546 187.114 546 209.089V421.584C546 443.663 525.285 459.885 503.85 454.593L274.85 398.053C259.668 394.305 249 380.683 249 365.045L249 263.853Z" fill="#FACA01"/>
<mask id="mask0_1_2" style="mask-type:alpha" maskUnits="userSpaceOnUse" x="249" y="175" width="297" height="281">
<path d="M249 263.853C249 248.121 259.792 234.444 275.092 230.785L504.092 176.022C525.465 170.911 546 187.114 546 209.089V421.584C546 443.663 525.285 459.885 503.85 454.593L274.85 398.053C259.668 394.305 249 380.683 249 365.045L249 263.853Z" fill="#FACA01"/>
</mask>
<g mask="url(#mask0_1_2)">
<path d="M114 201.829C114 188.624 121.646 176.613 133.611 171.024L333.611 77.6029C356.153 67.0732 382 83.5276 382 108.408L382 527.856C382 552.919 355.806 569.368 333.231 558.481L133.231 462.029C121.473 456.359 114 444.458 114 431.404L114 201.829Z" fill="#6940FF"/>
</g>
<defs>
<linearGradient id="paint0_linear_1_2" x1="203.5" y1="133.5" x2="356.5" y2="561.5" gradientUnits="userSpaceOnUse">
<stop stop-color="#2BE2FA"/>
<stop offset="1" stop-color="#0174FD"/>
</linearGradient>
</defs>
</svg>
